<?xml version="1.0" encoding="UTF-8"?>
<svg version="1.1" xmlns="http://www.w3.org/2000/svg" width="167" height="137">
<path d="M0 0 C55.11 0 110.22 0 167 0 C167 45.21 167 90.42 167 137 C111.89 137 56.78 137 0 137 C0 91.79 0 46.58 0 0 Z " fill="#FCFDFD" transform="translate(0,0)"/>
<path d="M0 0 C0.804375 -0.00128906 1.60875 -0.00257812 2.4375 -0.00390625 C3.283125 -0.00003906 4.12875 0.00382812 5 0.0078125 C6.2684375 0.00201172 6.2684375 0.00201172 7.5625 -0.00390625 C8.366875 -0.00261719 9.17125 -0.00132813 10 0 C10.7425 0.00112793 11.485 0.00225586 12.25 0.00341797 C14 0.1328125 14 0.1328125 15 1.1328125 C15.10491235 3.36125721 15.13857212 5.59307173 15.14526367 7.82397461 C15.14862228 8.52316513 15.1519809 9.22235565 15.15544128 9.94273376 C15.16497793 12.26522576 15.16689575 14.58764587 15.16796875 16.91015625 C15.17117947 18.51819387 15.1745434 20.12623119 15.17805481 21.73426819 C15.18405289 25.10955482 15.18589402 28.48481583 15.18530273 31.86010742 C15.18520108 36.1926255 15.19885383 40.52497983 15.21607494 44.85745907 C15.22717452 48.17994446 15.22922257 51.50239001 15.22869301 54.82489204 C15.2298762 56.42253751 15.23431682 58.0201839 15.24202538 59.6178112 C15.25178422 61.84941056 15.24896372 64.08065116 15.24291992 66.31225586 C15.24434494 67.5838707 15.24576996 68.85548553 15.24723816 70.16563416 C15 73.1328125 15 73.1328125 13 75.1328125 C10.21489776 75.32034561 7.53100354 75.38842482 4.74609375 75.36328125 C3.93004166 75.36282303 3.11398956 75.36236481 2.27320862 75.3618927 C0.54744005 75.35886994 -1.17832578 75.35098292 -2.90405273 75.33862305 C-5.55527333 75.32036228 -8.20614496 75.31811336 -10.85742188 75.31835938 C-12.53125304 75.31344444 -14.20508182 75.30761623 -15.87890625 75.30078125 C-16.67680069 75.29966843 -17.47469513 75.2985556 -18.29676819 75.29740906 C-23.88395099 75.24886151 -23.88395099 75.24886151 -25 74.1328125 C-25.36405838 69.38009506 -25.44240635 64.6257138 -25.51489258 59.8605957 C-25.54646237 58.25895499 -25.59414596 56.65754556 -25.65844727 55.05688477 C-26.18789763 41.69621181 -26.18789763 41.69621181 -23.21435547 37.78271484 C-21.20109354 36.30344603 -19.23362483 35.23157572 -17 34.1328125 C-15.79678152 32.10887065 -15.79678152 32.10887065 -16.03515625 29.47265625 C-16.12675191 18.07553913 -11.40108009 10.28358733 -5 1.1328125 C-3.4779041 -0.3892834 -2.11789918 0.00321729 0 0 Z " fill="#1952AA" transform="translate(134,43.8671875)"/>
<path d="M0 0 C2.84519739 2.50648341 3.87043686 3.62352466 4.625 7.3125 C4.77837676 12.02883534 4.23733099 14.59301109 1.125 18.25 C-0.1125 19.2709375 -0.1125 19.2709375 -1.375 20.3125 C-1.87 20.8075 -1.87 20.8075 -2.375 21.3125 C-3.59832031 21.31121094 -4.82164062 21.30992188 -6.08203125 21.30859375 C-8.89917346 21.63459081 -10.03054555 21.94146049 -11.98193359 24.04345703 C-13.47978384 26.43366575 -14.79126083 28.85700479 -16.0625 31.375 C-16.96101422 33.05404173 -17.8607438 34.73243367 -18.76171875 36.41015625 C-19.18888184 37.23273926 -19.61604492 38.05532227 -20.05615234 38.90283203 C-21.70308341 41.91194154 -23.58951917 44.71948545 -25.56567383 47.52124023 C-26.61758694 49.84941112 -26.18101177 50.93966443 -25.375 53.3125 C-24.78043546 58.06052252 -24.66594615 61.24891922 -27.375 65.3125 C-31.32497261 67.94581507 -33.63897042 68.23611243 -38.375 68.3125 C-39.365 67.6525 -40.355 66.9925 -41.375 66.3125 C-45.83556725 66.79876729 -49.65284523 69.54808293 -53.484375 71.71484375 C-55.2753279 72.70470826 -57.09557972 73.64549518 -58.953125 74.50390625 C-63.51039001 76.66936165 -65.7486634 78.27231429 -67.75 83 C-68.00523438 83.76699219 -68.26046875 84.53398438 -68.5234375 85.32421875 C-69.375 87.3125 -69.375 87.3125 -72.375 89.3125 C-77.47757186 89.88859682 -77.47757186 89.88859682 -80.375 89.3125 C-83.3125 86.875 -83.3125 86.875 -85.375 84.3125 C-85.705 83.9825 -86.035 83.6525 -86.375 83.3125 C-86.77538554 79.14849038 -86.81684328 76.98999304 -84.5 73.4375 C-81.77473457 70.71223457 -81.00866327 70.3490575 -77.125 70.125 C-73.375 70.3125 -73.375 70.3125 -70.78125 71.66015625 C-65.3061509 72.70871307 -61.730432 69.72464905 -57.125 66.9375 C-55.32996036 65.88488469 -53.53317063 64.83524631 -51.734375 63.7890625 C-50.55053223 63.0787085 -50.55053223 63.0787085 -49.34277344 62.35400391 C-47.375 61.3125 -47.375 61.3125 -45.375 61.3125 C-45.43300781 60.72082031 -45.49101563 60.12914062 -45.55078125 59.51953125 C-45.79523005 55.23818508 -45.78232734 52.95633998 -43.4375 49.25 C-39.32341058 46.64720874 -36.1123412 46.84805478 -31.375 47.3125 C-31.25423096 46.73145508 -31.13346191 46.15041016 -31.0090332 45.55175781 C-30.35284621 43.23425795 -29.47627294 41.53908587 -28.23046875 39.484375 C-27.80056641 38.76636719 -27.37066406 38.04835937 -26.92773438 37.30859375 C-26.47720703 36.56738281 -26.02667969 35.82617188 -25.5625 35.0625 C-20.60860886 26.87934454 -20.60860886 26.87934454 -16.375 18.3125 C-17.56712694 15.68652417 -17.56712694 15.68652417 -19.375 13.3125 C-19.92457375 8.99442054 -19.6691115 6.86921106 -17.625 3 C-12.77709935 -2.790548 -6.63404549 -3.31702275 0 0 Z " fill="#07866F" transform="translate(139.375,11.6875)"/>
<path d="M0 0 C0 11.22 0 22.44 0 34 C-2.85835486 35.42917743 -5.31257719 35.12980809 -8.50390625 35.1328125 C-9.80134766 35.13410156 -11.09878906 35.13539062 -12.43554688 35.13671875 C-13.45056274 35.13357666 -13.45056274 35.13357666 -14.48608398 35.13037109 C-16.55785415 35.12501202 -18.62940839 35.13032518 -20.70117188 35.13671875 C-22.64540039 35.13478516 -22.64540039 35.13478516 -24.62890625 35.1328125 C-25.82588135 35.13168457 -27.02285645 35.13055664 -28.25610352 35.12939453 C-31 35 -31 35 -32 34 C-32.48288939 29.61732035 -32.59092459 25.3739465 -32 21 C-29.25 18.6875 -29.25 18.6875 -26 17 C-25.525625 15.783125 -25.05125 14.56625 -24.5625 13.3125 C-21.60795147 6.4785008 -13.27796031 3.26396799 -7 0 C-4 -1 -4 -1 0 0 Z " fill="#1C4DA3" transform="translate(100,84)"/>
<path d="M0 0 C0.804375 -0.00128906 1.60875 -0.00257812 2.4375 -0.00390625 C3.283125 -0.00003906 4.12875 0.00382812 5 0.0078125 C6.2684375 0.00201172 6.2684375 0.00201172 7.5625 -0.00390625 C8.366875 -0.00261719 9.17125 -0.00132813 10 0 C10.7425 0.00112793 11.485 0.00225586 12.25 0.00341797 C14 0.1328125 14 0.1328125 15 1.1328125 C15.1284374 4.14362405 15.18523579 7.12140878 15.1875 10.1328125 C15.19974609 10.95910156 15.21199219 11.78539062 15.22460938 12.63671875 C15.2579447 26.83756735 15.2579447 26.83756735 11.4777832 30.68017578 C9.56520651 32.02526801 7.63937121 33.12268569 5.5625 34.1953125 C4.88123047 34.58396484 4.19996094 34.97261719 3.49804688 35.37304688 C0.50943027 37.03273895 -1.53563402 38.1328125 -5 38.1328125 C-5.02464928 32.88175808 -5.04283568 27.63073705 -5.05493164 22.37963867 C-5.05997218 20.59187229 -5.06680454 18.80411005 -5.07543945 17.01635742 C-5.0875173 14.45230082 -5.09323094 11.88829853 -5.09765625 9.32421875 C-5.10281754 8.5200502 -5.10797882 7.71588165 -5.11329651 6.88734436 C-5.11349215 4.96879535 -5.06201983 3.05035882 -5 1.1328125 C-3.4779041 -0.3892834 -2.11789918 0.00321729 0 0 Z " fill="#235AB3" transform="translate(76,40.8671875)"/>
<path d="M0 0 C2.84519739 2.50648341 3.87043686 3.62352466 4.625 7.3125 C4.77837676 12.02883534 4.23733099 14.59301109 1.125 18.25 C-0.1125 19.2709375 -0.1125 19.2709375 -1.375 20.3125 C-1.705 20.6425 -2.035 20.9725 -2.375 21.3125 C-3.59832031 21.31121094 -4.82164062 21.30992188 -6.08203125 21.30859375 C-8.89917346 21.63459081 -10.03054555 21.94146049 -11.98193359 24.04345703 C-13.47978384 26.43366575 -14.79126083 28.85700479 -16.0625 31.375 C-16.96101422 33.05404173 -17.8607438 34.73243367 -18.76171875 36.41015625 C-19.1901709 37.22758301 -19.61862305 38.04500977 -20.06005859 38.88720703 C-22.00106282 42.46721742 -24.16232543 45.89551104 -26.375 49.3125 C-28.025 48.9825 -29.675 48.6525 -31.375 48.3125 C-30.85397385 43.13288708 -28.22669706 39.33360809 -25.5625 35 C-20.60086792 26.85309544 -20.60086792 26.85309544 -16.375 18.3125 C-17.56712694 15.68652417 -17.56712694 15.68652417 -19.375 13.3125 C-19.92457375 8.99442054 -19.6691115 6.86921106 -17.625 3 C-12.77709935 -2.790548 -6.63404549 -3.31702275 0 0 Z " fill="#079D55" transform="translate(139.375,11.6875)"/>
<path d="M0 0 C1.56125851 0.00399299 3.12251789 0.01875614 4.68359375 0.04296875 C5.47701172 0.04361328 6.27042969 0.04425781 7.08789062 0.04492188 C12.98083853 0.09021353 12.98083853 0.09021353 14.12109375 1.23046875 C14.20823206 2.93819233 14.22809382 4.64945524 14.21875 6.359375 C14.21552734 7.39384766 14.21230469 8.42832031 14.20898438 9.49414062 C14.20060547 10.58275391 14.19222656 11.67136719 14.18359375 12.79296875 C14.17908203 13.88544922 14.17457031 14.97792969 14.16992188 16.10351562 C14.15809201 18.8125537 14.14160918 21.52148474 14.12109375 24.23046875 C11.35905843 25.76770609 8.58524223 27.28231036 5.80859375 28.79296875 C5.02291016 29.23060547 4.23722656 29.66824219 3.42773438 30.11914062 C2.67041016 30.52841797 1.91308594 30.93769531 1.1328125 31.359375 C0.43631592 31.7416626 -0.26018066 32.1239502 -0.9777832 32.51782227 C-2.87890625 33.23046875 -2.87890625 33.23046875 -5.87890625 32.23046875 C-5.92829253 27.99464548 -5.96461888 23.7589741 -5.98876953 19.52294922 C-5.99883588 18.08151328 -6.01249005 16.6400978 -6.02978516 15.19873047 C-6.05400637 13.12852941 -6.06538266 11.05859799 -6.07421875 8.98828125 C-6.08469238 7.74191895 -6.09516602 6.49555664 -6.10595703 5.21142578 C-5.74854474 0.51894826 -4.62227361 0.2746366 0 0 Z " fill="#1F5AAD" transform="translate(31.87890625,72.76953125)"/>
<path d="M0 0 C2.39457923 1.10869264 4.63764746 2.52223691 6.90039062 3.87988281 C6.90039062 8.49988281 6.90039062 13.11988281 6.90039062 17.87988281 C-6.95960937 17.87988281 -20.81960938 17.87988281 -35.09960938 17.87988281 C-31.66628949 15.3048929 -28.27949048 13.25265667 -24.50585938 11.27050781 C-23.87732056 10.93944031 -23.24878174 10.6083728 -22.60119629 10.26727295 C-21.27770292 9.57274497 -19.95309428 8.88033858 -18.62744141 8.18994141 C-16.60035907 7.13027472 -14.58259604 6.05411105 -12.56445312 4.97753906 C-11.2746311 4.30332301 -9.98428371 3.63011086 -8.69335938 2.95800781 C-8.09221313 2.634151 -7.49106689 2.31029419 -6.8717041 1.97662354 C-4.51078426 0.76699783 -2.68715157 -0.15373007 0 0 Z " fill="#18459B" transform="translate(52.099609375,101.1201171875)"/>
<path d="M0 0 C2.56758033 0.92731122 3.7081404 1.55894699 5.22265625 3.84765625 C6.57287481 7.5862011 6.66157517 11.09322454 6 15 C3.99368212 18.00947682 2.53564862 19.50462948 -0.9375 20.625 C-4.36762478 21.24865905 -6.67992892 21.13916134 -9.875 19.75 C-12.41350774 17.65946421 -13.84015985 15.99269143 -14.37109375 12.6953125 C-14.48552702 8.26607181 -14.44309207 5.71466463 -12.0625 1.875 C-8.00049633 -0.61194102 -4.65774236 -0.79156623 0 0 Z " fill="#7443C8" transform="translate(108,59)"/>
<path d="M0 0 C0.33 1.32 0.66 2.64 1 4 C0.34 4 -0.32 4 -1 4 C-1 5.32 -1 6.64 -1 8 C-1.33 8.33 -1.66 8.66 -2 9 C-0.68 9.33 0.64 9.66 2 10 C1.36191406 10.99257813 0.72382812 11.98515625 0.06640625 13.0078125 C-5.08062704 21.35262109 -7.69103797 27.15391761 -7.78125 37.0546875 C-8.00622043 40.0837536 -8.38953054 41.40172453 -10.25 43.75 C-12.82660016 45.8581274 -14.81394761 47.08969932 -18 48 C-18 47.34 -18 46.68 -18 46 C-17.34 46 -16.68 46 -16 46 C-16.33 45.34 -16.66 44.68 -17 44 C-19.02463255 43.34786708 -19.02463255 43.34786708 -21 43 C-20.21625 42.731875 -19.4325 42.46375 -18.625 42.1875 C-15.71885077 41.15185568 -15.71885077 41.15185568 -14 38 C-13.72122601 35.85056665 -13.72122601 35.85056665 -13.8125 33.5625 C-13.81894531 32.80066406 -13.82539062 32.03882813 -13.83203125 31.25390625 C-13.89773542 29.02757113 -13.89773542 29.02757113 -14.66186523 27.14599609 C-15.13268426 24.15791 -14.16092909 22.95208537 -12.578125 20.41015625 C-12.04703125 19.54326172 -11.5159375 18.67636719 -10.96875 17.78320312 C-10.4015625 16.88537109 -9.834375 15.98753906 -9.25 15.0625 C-8.69828125 14.16853516 -8.1465625 13.27457031 -7.578125 12.35351562 C-6.54374501 10.67886437 -5.50425439 9.00735118 -4.45800781 7.34008789 C-2.94376184 4.90973831 -1.4670951 2.45904526 0 0 Z " fill="#F1F5F7" transform="translate(127,36)"/>
<path d="M0 0 C0.33 0 0.66 0 1 0 C1.04627898 9.35307611 1.08184653 18.70611299 1.10362434 28.05927849 C1.114075 32.40202749 1.12825747 36.74469833 1.15087891 41.08740234 C1.17256174 45.27598975 1.18455896 49.46450184 1.18975449 53.65314102 C1.19345847 55.2535839 1.20069113 56.85402251 1.21146011 58.45443344 C1.22591463 60.69090532 1.22798051 62.92706337 1.22705078 65.16357422 C1.231492 66.43820526 1.23593323 67.7128363 1.24050903 69.02609253 C1 72 1 72 -1 74 C-3.78510224 74.18753311 -6.46899646 74.25561232 -9.25390625 74.23046875 C-10.06995834 74.23001053 -10.88601044 74.22955231 -11.72679138 74.2290802 C-13.45255995 74.22605744 -15.17832578 74.21817042 -16.90405273 74.20581055 C-19.55527333 74.18754978 -22.20614496 74.18530086 -24.85742188 74.18554688 C-26.53125304 74.18063194 -28.20508182 74.17480373 -29.87890625 74.16796875 C-30.67680069 74.16685593 -31.47469513 74.1657431 -32.29676819 74.16459656 C-37.88395099 74.11604901 -37.88395099 74.11604901 -39 73 C-39.36405838 68.24728256 -39.44240635 63.4929013 -39.51489258 58.7277832 C-39.54646237 57.12614249 -39.59414596 55.52473306 -39.65844727 53.92407227 C-40.18789763 40.56339931 -40.18789763 40.56339931 -37.21435547 36.64990234 C-35.20109354 35.17063353 -33.23362483 34.09876322 -31 33 C-29.10786029 29.21572058 -29.64214052 24.55712143 -29.4765625 20.3828125 C-28.98959474 16.92613975 -28.35208639 15.50302241 -26 13 C-26.14176421 15.70860124 -26.28828216 18.41680752 -26.4375 21.125 C-26.49647461 22.26582031 -26.49647461 22.26582031 -26.55664062 23.4296875 C-27.21455443 35.17091857 -27.21455443 35.17091857 -30.25 38.375 C-33 40 -33 40 -38 40 C-38 50.56 -38 61.12 -38 72 C-25.79 72 -13.58 72 -1 72 C-0.67 48.24 -0.34 24.48 0 0 Z " fill="#32599C" transform="translate(148,45)"/>
<path d="M0 0 C1.8125 0.8125 1.8125 0.8125 3.8125 2.8125 C3.4375 4.9375 3.4375 4.9375 2.8125 6.8125 C1.31783203 6.93431641 1.31783203 6.93431641 -0.20703125 7.05859375 C-4.66279454 7.70346259 -8.06414281 9.55751558 -11.875 11.875 C-12.54055908 12.27477051 -13.20611816 12.67454102 -13.8918457 13.08642578 C-18.99857861 16.32484177 -21.10726897 19.06710001 -23.1875 24.8125 C-26.375 27.8125 -26.375 27.8125 -29.1875 27.8125 C-29.9375 25.5625 -29.9375 25.5625 -30.1875 22.8125 C-28.90090837 21.43400897 -27.55836915 20.10720975 -26.1875 18.8125 C-25.61902344 17.16121094 -25.61902344 17.16121094 -25.0390625 15.4765625 C-23.11851402 10.7930984 -19.68012226 9.24237633 -15.3125 7.0625 C-13.89826736 6.31803145 -12.48420102 5.57324688 -11.0703125 4.828125 C-10.40136963 4.48612061 -9.73242676 4.14411621 -9.04321289 3.79174805 C-7.43007374 2.94050464 -5.86725661 1.99520647 -4.31640625 1.03515625 C-2.1875 -0.1875 -2.1875 -0.1875 0 0 Z " fill="#EDF7F8" transform="translate(97.1875,77.1875)"/>
<path d="M0 0 C0.33 0 0.66 0 1 0 C1 12.21 1 24.42 1 37 C10.75785253 33.16145541 10.75785253 33.16145541 18.92578125 25.73828125 C19.05339844 24.93777344 19.18101563 24.13726562 19.3125 23.3125 C19.45300781 22.50425781 19.59351562 21.69601563 19.73828125 20.86328125 C19.82464844 20.24839844 19.91101563 19.63351563 20 19 C20.495 19.99 20.495 19.99 21 21 C23.02463255 21.65213292 23.02463255 21.65213292 25 22 C25.29473356 25.25490358 25.12854104 27.91590021 24 31 C20.8157348 33.95351034 17.17931206 35.75778133 13.3125 37.6875 C12.31798828 38.23599609 11.32347656 38.78449219 10.29882812 39.34960938 C2.97088024 43.18666526 2.97088024 43.18666526 -1.43359375 42.33984375 C-2.28050781 41.89769531 -3.12742187 41.45554688 -4 41 C-6.71061275 40.77336014 -9.27148292 40.9059132 -12 41 C-12 40.34 -12 39.68 -12 39 C-8.7 39 -5.4 39 -2 39 C-0.75526468 35.26579403 -0.76790215 31.72634762 -0.68359375 27.83203125 C-0.66281265 27.03721848 -0.64203156 26.2424057 -0.62062073 25.42350769 C-0.55527913 22.88659237 -0.49631192 20.34957427 -0.4375 17.8125 C-0.39430014 16.09178628 -0.35068537 14.37108292 -0.30664062 12.65039062 C-0.19961352 8.43369887 -0.09830276 4.2169038 0 0 Z " fill="#E9F9FA" transform="translate(70,42)"/>
<path d="M0 0 C2.97 0.33 5.94 0.66 9 1 C8.44183594 1.48984375 7.88367188 1.9796875 7.30859375 2.484375 C4.29086086 5.77273369 2.25879033 9.38210738 0.0625 13.25 C-0.77882323 14.71418849 -1.62126863 16.17773275 -2.46484375 17.640625 C-2.87718262 18.35669922 -3.28952148 19.07277344 -3.71435547 19.81054688 C-5.73591077 23.25325632 -7.86026925 26.62982425 -10 30 C-11.65 29.67 -13.3 29.34 -15 29 C-14.47692991 23.81032424 -11.84593941 19.97586507 -9.1875 15.625 C-8.30561625 14.1590787 -7.42410166 12.69293524 -6.54296875 11.2265625 C-6.11677246 10.52176758 -5.69057617 9.81697266 -5.25146484 9.09082031 C-3.45343559 6.08685571 -1.72435629 3.04676473 0 0 Z " fill="#0D845A" transform="translate(123,31)"/>
<path d="M0 0 C0.804375 -0.00128906 1.60875 -0.00257812 2.4375 -0.00390625 C3.283125 -0.00003906 4.12875 0.00382812 5 0.0078125 C6.2684375 0.00201172 6.2684375 0.00201172 7.5625 -0.00390625 C8.366875 -0.00261719 9.17125 -0.00132813 10 0 C10.7425 0.00112793 11.485 0.00225586 12.25 0.00341797 C14 0.1328125 14 0.1328125 15 1.1328125 C15.08631874 2.47548663 15.10706473 3.82255572 15.09765625 5.16796875 C15.09443359 5.97685547 15.09121094 6.78574219 15.08789062 7.61914062 C15.07951172 8.46927734 15.07113281 9.31941406 15.0625 10.1953125 C15.05798828 11.04931641 15.05347656 11.90332031 15.04882812 12.78320312 C15.03700373 14.89976913 15.01906769 17.01629935 15 19.1328125 C14.67 19.1328125 14.34 19.1328125 14 19.1328125 C13.67 13.5228125 13.34 7.9128125 13 2.1328125 C10.69 2.7928125 8.38 3.4528125 6 4.1328125 C2.7 4.1328125 -0.6 4.1328125 -4 4.1328125 C-4 12.3828125 -4 20.6328125 -4 29.1328125 C-1.03 28.8028125 1.94 28.4728125 5 28.1328125 C4.01 29.1228125 3.02 30.1128125 2 31.1328125 C2.99 31.4628125 3.98 31.7928125 5 32.1328125 C5 32.7928125 5 33.4528125 5 34.1328125 C-1.625 38.1328125 -1.625 38.1328125 -5 38.1328125 C-5.02464928 32.88175808 -5.04283568 27.63073705 -5.05493164 22.37963867 C-5.05997218 20.59187229 -5.06680454 18.80411005 -5.07543945 17.01635742 C-5.0875173 14.45230082 -5.09323094 11.88829853 -5.09765625 9.32421875 C-5.10281754 8.5200502 -5.10797882 7.71588165 -5.11329651 6.88734436 C-5.11349215 4.96879535 -5.06201983 3.05035882 -5 1.1328125 C-3.4779041 -0.3892834 -2.11789918 0.00321729 0 0 Z " fill="#2756A4" transform="translate(76,40.8671875)"/>
<path d="M0 0 C0.66 0.33 1.32 0.66 2 1 C2 2.65 2 4.3 2 6 C-10.21 6 -22.42 6 -35 6 C-34.67 4.35 -34.34 2.7 -34 1 C-30.39585115 0.97046897 -26.79173424 0.95302593 -23.1875 0.9375 C-22.18267578 0.92912109 -21.17785156 0.92074219 -20.14257812 0.91210938 C-13.37131176 0.89033681 -6.73089074 1.2630169 0 2 C0 1.34 0 0.68 0 0 Z " fill="#1242A0" transform="translate(145,111)"/>
<path d="M0 0 C0.66 0.33 1.32 0.66 2 1 C1.01 2.485 1.01 2.485 0 4 C1.32 4.66 2.64 5.32 4 6 C0.54515902 7.83997197 -2.9144248 9.67083882 -6.375 11.5 C-7.35984375 12.02464844 -8.3446875 12.54929687 -9.359375 13.08984375 C-10.30039062 13.58613281 -11.24140625 14.08242187 -12.2109375 14.59375 C-13.51490479 15.28500977 -13.51490479 15.28500977 -14.84521484 15.99023438 C-17 17 -17 17 -19 17 C-18.67558396 15.33157466 -18.34060811 13.66519519 -18 12 C-17.938125 11.278125 -17.87625 10.55625 -17.8125 9.8125 C-17.544375 9.214375 -17.27625 8.61625 -17 8 C-15.02179902 7.27118911 -13.01345199 6.62486441 -11 6 C-8.09328681 4.44020039 -5.23995042 2.80663775 -2.390625 1.14453125 C-1.60171875 0.76683594 -0.8128125 0.38914062 0 0 Z " fill="#EBF4F8" transform="translate(44,97)"/>
<path d="M0 0 C0.56170898 0.37560059 1.12341797 0.75120117 1.70214844 1.13818359 C0.22613035 5.07423183 -1.74302625 6.25214499 -5.42285156 8.13818359 C-6.40125 8.64607422 -7.37964844 9.15396484 -8.38769531 9.67724609 C-9.34804687 10.15935547 -10.30839844 10.64146484 -11.29785156 11.13818359 C-12.12414062 11.55841797 -12.95042969 11.97865234 -13.80175781 12.41162109 C-15.62765542 13.33273581 -17.46179991 14.23747901 -19.29785156 15.13818359 C-19.29785156 14.14818359 -19.29785156 13.15818359 -19.29785156 12.13818359 C-20.28785156 11.47818359 -21.27785156 10.81818359 -22.29785156 10.13818359 C-19.0624683 8.2370617 -15.80765143 6.37207774 -12.54785156 4.51318359 C-11.62746094 3.97177734 -10.70707031 3.43037109 -9.75878906 2.87255859 C-8.86933594 2.36982422 -7.97988281 1.86708984 -7.06347656 1.34912109 C-6.2465332 0.87780762 -5.42958984 0.40649414 -4.58789062 -0.07910156 C-2.29785156 -0.86181641 -2.29785156 -0.86181641 0 0 Z " fill="#19957D" transform="translate(94.2978515625,73.86181640625)"/>
<path d="M0 0 C1.84375 0.953125 1.84375 0.953125 3.84375 5.953125 C11.10375 6.283125 18.36375 6.613125 25.84375 6.953125 C25.84375 7.283125 25.84375 7.613125 25.84375 7.953125 C12.31375 7.953125 -1.21625 7.953125 -15.15625 7.953125 C-12.32933878 5.83294158 -9.68690043 3.96754477 -6.65625 2.203125 C-5.9034375 1.75453125 -5.150625 1.3059375 -4.375 0.84375 C-2.15625 -0.046875 -2.15625 -0.046875 0 0 Z " fill="#0E3381" transform="translate(32.15625,111.046875)"/>
<path d="M0 0 C0 6.93 0 13.86 0 21 C-1.32 19.68 -2.64 18.36 -4 17 C-4.33 17 -4.66 17 -5 17 C-5.05423638 15.08364783 -5.09289963 13.16685075 -5.125 11.25 C-5.14820312 10.18265625 -5.17140625 9.1153125 -5.1953125 8.015625 C-5.00487687 5.07529894 -4.52670104 3.47638122 -3 1 C-3.66 1 -4.32 1 -5 1 C-5 1.66 -5 2.32 -5 3 C-6.32 2.67 -7.64 2.34 -9 2 C-3.375 -1.125 -3.375 -1.125 0 0 Z " fill="#2154A1" transform="translate(99,84)"/>
<path d="M0 0 C0.33 0.66 0.66 1.32 1 2 C3.02463255 2.65213292 3.02463255 2.65213292 5 3 C5.23961944 6.23486241 5.14750124 8.94509671 4 12 C0.9462987 14.39895339 -2.27294455 15.92095233 -6 17 C-6.66 16.67 -7.32 16.34 -8 16 C-8 15.34 -8 14.68 -8 14 C-6.68 14.33 -5.36 14.66 -4 15 C-4 14.34 -4 13.68 -4 13 C-4.99 12.67 -5.98 12.34 -7 12 C-6.21625 11.690625 -5.4325 11.38125 -4.625 11.0625 C-0.80738984 8.06294916 -0.65265251 4.64649622 0 0 Z " fill="#DFEFF5" transform="translate(90,61)"/>
<path d="M0 0 C0.66 0.33 1.32 0.66 2 1 C1.896875 2.051875 1.79375 3.10375 1.6875 4.1875 C1.66972412 8.08115568 1.66972412 8.08115568 4.125 10.875 C7.23121539 13.17089833 9.18863862 13.73409107 13 14 C12.34 14.66 11.68 15.32 11 16 C10.01 16 9.02 16 8 16 C8 21.28 8 26.56 8 32 C7.67 32 7.34 32 7 32 C7 27.38 7 22.76 7 18 C1.63498333 15.74341395 1.63498333 15.74341395 -4 15 C-4 14.34 -4 13.68 -4 13 C-2.68 12.34 -1.36 11.68 0 11 C0 7.37 0 3.74 0 0 Z " fill="#E1F4F7" transform="translate(52,87)"/>
<path d="M0 0 C1.46306683 4.38920049 0.78166294 8.37706561 0.375 12.9375 C0.31699219 13.84435547 0.25898437 14.75121094 0.19921875 15.68554688 C-0.39805154 22.33874628 -0.39805154 22.33874628 -3.37890625 25.61328125 C-6.47803819 27.25291141 -8.54156617 27.32171478 -12 27 C-10.21829434 25.12452035 -8.41702241 23.54194618 -6.375 21.9375 C-3.93968019 20.22133095 -3.93968019 20.22133095 -3 18 C-2.72077237 14.46311669 -2.55275342 10.92633561 -2.37890625 7.3828125 C-2.03803468 4.33956732 -1.5908046 2.56332077 0 0 Z " fill="#355F98" transform="translate(121,58)"/>
<path d="M0 0 C2.39485693 3.5922854 2.17558429 4.96005459 1.9765625 9.19921875 C1.89921875 11.01196289 1.89921875 11.01196289 1.8203125 12.86132812 C1.75585938 14.12396484 1.69140625 15.38660156 1.625 16.6875 C1.56828125 17.96173828 1.5115625 19.23597656 1.453125 20.54882812 C1.31150935 23.69977629 1.16008115 26.84994472 1 30 C1.99 30.33 2.98 30.66 4 31 C2.0625 31.5625 2.0625 31.5625 0 32 C-1.88319268 30.11680732 -1.13054285 26.88069863 -1.1328125 24.375 C-1.13376923 23.71290527 -1.13472595 23.05081055 -1.13571167 22.36865234 C-1.13639326 20.96647039 -1.13454042 19.5642853 -1.13037109 18.16210938 C-1.12502246 16.00904287 -1.1303167 13.85618498 -1.13671875 11.703125 C-1.13605796 10.34374954 -1.13477679 8.9843742 -1.1328125 7.625 C-1.13168457 6.37976563 -1.13055664 5.13453125 -1.12939453 3.8515625 C-1 1 -1 1 0 0 Z " fill="#426DA7" transform="translate(27,74)"/>
<path d="M0 0 C0.33 1.32 0.66 2.64 1 4 C0.34 4 -0.32 4 -1 4 C-1 5.32 -1 6.64 -1 8 C-1.33 8.33 -1.66 8.66 -2 9 C-0.68 9.33 0.64 9.66 2 10 C1.01 11.98 0.02 13.96 -1 16 C-2.32 15.01 -3.64 14.02 -5 13 C-5.33 13.66 -5.66 14.32 -6 15 C-6.66 14.67 -7.32 14.34 -8 14 C-5.36 9.38 -2.72 4.76 0 0 Z " fill="#E2F5F2" transform="translate(127,36)"/>
<path d="M0 0 C1 2 1 2 0.3125 5.3125 C-1.00744122 9.02090629 -2.18489295 11.26769021 -5 14 C-6.32 14 -7.64 14 -9 14 C-9 17.63 -9 21.26 -9 25 C-9.33 25 -9.66 25 -10 25 C-10.34203765 20.61685084 -10.5349108 16.37207702 -10 12 C-7.25 9.6875 -7.25 9.6875 -4 8 C-2.35915841 5.45918166 -1.15211796 2.79219175 0 0 Z " fill="#23488F" transform="translate(78,93)"/>
<path d="M0 0 C4.56589147 1.44186047 4.56589147 1.44186047 6.3125 3.6875 C7.2478171 6.83356663 7.12541365 9.73924509 7 13 C6.01 12.34 5.02 11.68 4 11 C4.66 9.68 5.32 8.36 6 7 C5.401875 7.350625 4.80375 7.70125 4.1875 8.0625 C2 9 2 9 -1 8 C-1 7.01 -1 6.02 -1 5 C0.32 5.33 1.64 5.66 3 6 C2.2575 5.071875 2.2575 5.071875 1.5 4.125 C0 2 0 2 0 0 Z M2 12 C2.66 12 3.32 12 4 12 C4 12.66 4 13.32 4 14 C3.34 14 2.68 14 2 14 C2 13.34 2 12.68 2 12 Z " fill="#6B4AB5" transform="translate(107,59)"/>
<path d="M0 0 C0.66 0 1.32 0 2 0 C1.67 4.95 1.34 9.9 1 15 C0.01 15.33 -0.98 15.66 -2 16 C-2.05423638 14.08364783 -2.09289963 12.16685075 -2.125 10.25 C-2.14820312 9.18265625 -2.17140625 8.1153125 -2.1953125 7.015625 C-2.00487687 4.07529894 -1.52670104 2.47638122 0 0 Z " fill="#1F4DAA" transform="translate(96,85)"/>
<path d="M0 0 C1.65 0.33 3.3 0.66 5 1 C4.125 5.75 4.125 5.75 3 8 C1.35 7.67 -0.3 7.34 -2 7 C-1.125 2.25 -1.125 2.25 0 0 Z " fill="#1A8A6B" transform="translate(110,53)"/>
<path d="M0 0 C0.12375 0.5775 0.2475 1.155 0.375 1.75 C1.00648824 4.02335767 1.88858191 5.9253529 3 8 C-1.75 12 -1.75 12 -4 12 C-4.75 9.75 -4.75 9.75 -5 7 C-3.125 4.875 -3.125 4.875 -1 3 C-0.67 2.01 -0.34 1.02 0 0 Z " fill="#E4EDF4" transform="translate(72,93)"/>
<path d="M0 0 C0.33 0.66 0.66 1.32 1 2 C0.67 2.99 0.34 3.98 0 5 C0.66 5 1.32 5 2 5 C2.33 4.01 2.66 3.02 3 2 C3.66 2 4.32 2 5 2 C3.49776416 6.20626034 0.71449966 7.73900021 -3 10 C-3.33 9.34 -3.66 8.68 -4 8 C-3.34 8 -2.68 8 -2 8 C-2.33 7.34 -2.66 6.68 -3 6 C-5.02463255 5.34786708 -5.02463255 5.34786708 -7 5 C-6.21625 4.731875 -5.4325 4.46375 -4.625 4.1875 C-1.71885077 3.15185568 -1.71885077 3.15185568 0 0 Z " fill="#DCF1F8" transform="translate(113,74)"/>
<path d="M0 0 C0 0.33 0 0.66 0 1 C-1.6396875 1.37125 -1.6396875 1.37125 -3.3125 1.75 C-7.14083964 3.04774225 -8.23659632 3.47319263 -10 7 C-10.72045367 10.15118325 -10.72045367 10.15118325 -11 13 C-11.66 13 -12.32 13 -13 13 C-13.32470459 8.86001651 -13.4304413 6.66000999 -11.125 3.125 C-7.51077202 -0.48922798 -4.9985891 -0.09256646 0 0 Z " fill="#268C79" transform="translate(66,82)"/>
<path d="M0 0 C0.99 0.33 1.98 0.66 3 1 C3 2.98 3 4.96 3 7 C1.02 7 -0.96 7 -3 7 C-3.33 6.01 -3.66 5.02 -4 4 C-2.68 2.68 -1.36 1.36 0 0 Z " fill="#12409B" transform="translate(96,110)"/>
<path d="M0 0 C0.66 0.33 1.32 0.66 2 1 C1.67 1.99 1.34 2.98 1 4 C0.34 4 -0.32 4 -1 4 C-1 4.66 -1 5.32 -1 6 C-4.3 6.33 -7.6 6.66 -11 7 C-7.35075615 4.26306711 -4.02952916 2.08938549 0 0 Z " fill="#204696" transform="translate(30,111)"/>
<path d="M0 0 C2.3125 0.8125 2.3125 0.8125 4 2 C3.34 3.32 2.68 4.64 2 6 C-2.75 5.25 -2.75 5.25 -5 3 C-2.75 1.375 -2.75 1.375 0 0 Z " fill="#2F8891" transform="translate(92,73)"/>
<path d="M0 0 C1.875 0.8125 1.875 0.8125 3.875 2.8125 C3.5 4.9375 3.5 4.9375 2.875 6.8125 C1.225 6.8125 -0.425 6.8125 -2.125 6.8125 C-2.455 5.8225 -2.785 4.8325 -3.125 3.8125 C-2.135 3.8125 -1.145 3.8125 -0.125 3.8125 C-0.455 3.1525 -0.785 2.4925 -1.125 1.8125 C-2.775 2.1425 -4.425 2.4725 -6.125 2.8125 C-2.70744111 -0.23889186 -2.70744111 -0.23889186 0 0 Z " fill="#DFE6F2" transform="translate(97.125,77.1875)"/>
<path d="M0 0 C0.80050781 0.03480469 1.60101563 0.06960937 2.42578125 0.10546875 C3.63814453 0.14607422 3.63814453 0.14607422 4.875 0.1875 C5.48988281 0.22230469 6.10476562 0.25710937 6.73828125 0.29296875 C6.40828125 1.28296875 6.07828125 2.27296875 5.73828125 3.29296875 C2.10828125 3.29296875 -1.52171875 3.29296875 -5.26171875 3.29296875 C-2.26171875 0.29296875 -2.26171875 0.29296875 0 0 Z " fill="#0D419C" transform="translate(75.26171875,113.70703125)"/>
<path d="M0 0 C0.66 0.33 1.32 0.66 2 1 C1.01 2.485 1.01 2.485 0 4 C1.32 4.66 2.64 5.32 4 6 C2.02 6.66 0.04 7.32 -2 8 C-2.12375 7.360625 -2.2475 6.72125 -2.375 6.0625 C-2.684375 5.0415625 -2.684375 5.0415625 -3 4 C-3.66 3.67 -4.32 3.34 -5 3 C-2.625 1.4375 -2.625 1.4375 0 0 Z " fill="#DDEAF4" transform="translate(44,97)"/>
<path d="M0 0 C0.33 0.66 0.66 1.32 1 2 C2.98 2.495 2.98 2.495 5 3 C4.67 5.97 4.34 8.94 4 12 C0.98159875 7.47239812 -0.24339186 5.47631692 0 0 Z " fill="#E1D8F3" transform="translate(90,61)"/>
<path d="M0 0 C0.33 0 0.66 0 1 0 C1.33 2.97 1.66 5.94 2 9 C2.66 9 3.32 9 4 9 C4 9.66 4 10.32 4 11 C4.99 11 5.98 11 7 11 C7 11.99 7 12.98 7 14 C3.34683329 12.75023244 2.21934164 12.32901247 0 9 C-0.1953125 6.73828125 -0.1953125 6.73828125 -0.125 4.3125 C-0.10695313 3.50425781 -0.08890625 2.69601563 -0.0703125 1.86328125 C-0.04710938 1.24839844 -0.02390625 0.63351563 0 0 Z " fill="#6748B2" transform="translate(94,65)"/>
<path d="M0 0 C0.33 1.32 0.66 2.64 1 4 C-2.13498292 5.85776765 -4.37471432 6.20140476 -8 6 C-5.63379989 3.38472619 -3.057952 1.73559438 0 0 Z " fill="#275095" transform="translate(88,87)"/>
<path d="M0 0 C0.99 0 1.98 0 3 0 C3.33 2.31 3.66 4.62 4 7 C2.68 7.33 1.36 7.66 0 8 C0 6.35 0 4.7 0 3 C0.66 3 1.32 3 2 3 C2 2.34 2 1.68 2 1 C1.34 0.67 0.68 0.34 0 0 Z " fill="#1F4BA5" transform="translate(72,70)"/>
<path d="M0 0 C2.475 0.99 2.475 0.99 5 2 C4.67 2.66 4.34 3.32 4 4 C1.35139573 4.59355614 -1.29197322 4.74209269 -4 5 C-4 4.34 -4 3.68 -4 3 C-2.68 3 -1.36 3 0 3 C0 2.01 0 1.02 0 0 Z " fill="#7A53C0" transform="translate(105,75)"/>
<path d="M0 0 C0.66 0 1.32 0 2 0 C1.67 4.95 1.34 9.9 1 15 C0.67 15 0.34 15 0 15 C-0.19517554 13.06325815 -0.38087873 11.12555991 -0.5625 9.1875 C-0.66691406 8.10855469 -0.77132812 7.02960938 -0.87890625 5.91796875 C-1 3 -1 3 0 0 Z " fill="#1855B0" transform="translate(96,85)"/>
<path d="M0 0 C1.36741555 2.25221384 2.04066478 3.52557758 1.8125 6.1875 C1.4103125 7.0846875 1.4103125 7.0846875 1 8 C0.01 8.33 -0.98 8.66 -2 9 C-1.125 1.125 -1.125 1.125 0 0 Z " fill="#F3FAF9" transform="translate(91,66)"/>
<path d="M0 0 C0.66 0 1.32 0 2 0 C3.36884358 4.51718381 2.47075246 7.58774263 1 12 C0.67 12 0.34 12 0 12 C0 8.04 0 4.08 0 0 Z " fill="#17489F" transform="translate(110,100)"/>
<path d="M0 0 C1.60031344 3.20062687 0.03173691 5.72271806 -1 9 C-2.32 9.33 -3.64 9.66 -5 10 C-3.35 6.7 -1.7 3.4 0 0 Z " fill="#324F8B" transform="translate(78,93)"/>
<path d="M0 0 C1.0326802 2.78823655 1.04509293 3.8677274 0.0625 6.75 C-0.288125 7.4925 -0.63875 8.235 -1 9 C-2.32 8.34 -3.64 7.68 -5 7 C-4.0409375 6.1028125 -4.0409375 6.1028125 -3.0625 5.1875 C-0.79689611 3.09189663 -0.79689611 3.09189663 0 0 Z " fill="#D5EFEB" transform="translate(72,93)"/>
<path d="M0 0 C1.2065625 0.0309375 1.2065625 0.0309375 2.4375 0.0625 C2.4375 0.7225 2.4375 1.3825 2.4375 2.0625 C1.1175 1.7325 -0.2025 1.4025 -1.5625 1.0625 C-1.5625 1.7225 -1.5625 2.3825 -1.5625 3.0625 C-0.9025 3.3925 -0.2425 3.7225 0.4375 4.0625 C-1.5425 5.0525 -1.5425 5.0525 -3.5625 6.0625 C-3.605221 4.39638095 -3.60313832 2.72867115 -3.5625 1.0625 C-2.5625 0.0625 -2.5625 0.0625 0 0 Z " fill="#F0FBFC" transform="translate(83.5625,73.9375)"/>
<path d="M0 0 C0.99 0.66 1.98 1.32 3 2 C3 5 3 5 1.625 6.6875 C0 8 0 8 -2 8 C-1.125 2.25 -1.125 2.25 0 0 Z " fill="#FBFBFB" transform="translate(115,71)"/>
<path d="M0 0 C0.98120464 3.05263664 0.98120464 4.94736336 0 8 C-1.98 8.33 -3.96 8.66 -6 9 C-4.73046875 7.53515625 -3.4609375 6.0703125 -2.19140625 4.60546875 C-0.79128769 2.89287029 -0.79128769 2.89287029 0 0 Z " fill="#CFF3E3" transform="translate(143,24)"/>
<path d="M0 0 C1.33332095 2.6666419 0.67102033 4.16680303 0 7 C-2.31 6.67 -4.62 6.34 -7 6 C-6.01 5.34 -5.02 4.68 -4 4 C-2.64748503 2.68612831 -1.31054623 1.35573748 0 0 Z " fill="#F1E7F7" transform="translate(113,74)"/>
<path d="M0 0 C0 1.65 0 3.3 0 5 C-1.32 5 -2.64 5 -4 5 C-4 3.68 -4 2.36 -4 1 C-2 0 -2 0 0 0 Z " fill="#098667" transform="translate(113,56)"/>
<path d="M0 0 C0.66 0 1.32 0 2 0 C2 0.66 2 1.32 2 2 C2.66 2 3.32 2 4 2 C3.67 2.66 3.34 3.32 3 4 C0.4375 4.625 0.4375 4.625 -2 5 C-1.34 3.35 -0.68 1.7 0 0 Z " fill="#037B57" transform="translate(115,46)"/>
<path d="M0 0 C0 1.98 0 3.96 0 6 C-3.875 4.25 -3.875 4.25 -5 2 C-1.125 0 -1.125 0 0 0 Z " fill="#E0EEF3" transform="translate(80,75)"/>
<path d="M0 0 C0.33 0 0.66 0 1 0 C1.25 2.3125 1.25 2.3125 1 5 C-1 6.8125 -1 6.8125 -3 8 C-2.45276317 4.62537285 -1.9451 2.91765 0 0 Z " fill="#D7F3EF" transform="translate(117,53)"/>
</svg>
